<mxfile host="app.diagrams.net" modified="2024-04-01T10:47:24.325Z" agent="Mozilla/5.0 (Windows NT 10.0; Win64; x64) AppleWebKit/537.36 (KHTML, like Gecko) Chrome/121.0.0.0 Safari/537.36" etag="HS6gMx0eChHii-yZXcyt" version="24.2.1" type="google" pages="2">
  <diagram name="UC-5.1" id="HPTC_Znbg452yDIcdCFF">
    <mxGraphModel grid="1" page="1" gridSize="10" guides="1" tooltips="1" connect="1" arrows="1" fold="1" pageScale="1" pageWidth="827" pageHeight="1169" math="0" shadow="0">
      <root>
        <mxCell id="0" />
        <mxCell id="1" parent="0" />
        <mxCell id="i2-RoIuroY8MgzmHnkEs-1" value="&lt;font style=&quot;font-size: 14px;&quot;&gt;Quản lý&lt;/font&gt;" style="swimlane;whiteSpace=wrap;html=1;" vertex="1" parent="1">
          <mxGeometry x="-160" y="40" width="480" height="1440" as="geometry" />
        </mxCell>
        <mxCell id="i2-RoIuroY8MgzmHnkEs-7" style="edgeStyle=orthogonalEdgeStyle;rounded=0;orthogonalLoop=1;jettySize=auto;html=1;" edge="1" parent="i2-RoIuroY8MgzmHnkEs-1" source="i2-RoIuroY8MgzmHnkEs-5" target="i2-RoIuroY8MgzmHnkEs-6">
          <mxGeometry relative="1" as="geometry" />
        </mxCell>
        <mxCell id="i2-RoIuroY8MgzmHnkEs-5" value="" style="points=[[0.145,0.145,0],[0.5,0,0],[0.855,0.145,0],[1,0.5,0],[0.855,0.855,0],[0.5,1,0],[0.145,0.855,0],[0,0.5,0]];shape=mxgraph.bpmn.event;html=1;verticalLabelPosition=bottom;labelBackgroundColor=#ffffff;verticalAlign=top;align=center;perimeter=ellipsePerimeter;outlineConnect=0;aspect=fixed;outline=standard;symbol=general;fillColor=#008a00;fontColor=#ffffff;strokeColor=#005700;" vertex="1" parent="i2-RoIuroY8MgzmHnkEs-1">
          <mxGeometry x="10" y="50" width="50" height="50" as="geometry" />
        </mxCell>
        <mxCell id="i2-RoIuroY8MgzmHnkEs-9" style="edgeStyle=orthogonalEdgeStyle;rounded=0;orthogonalLoop=1;jettySize=auto;html=1;entryX=0.5;entryY=0;entryDx=0;entryDy=0;" edge="1" parent="i2-RoIuroY8MgzmHnkEs-1" source="i2-RoIuroY8MgzmHnkEs-6" target="i2-RoIuroY8MgzmHnkEs-8">
          <mxGeometry relative="1" as="geometry" />
        </mxCell>
        <mxCell id="i2-RoIuroY8MgzmHnkEs-6" value="Chọn chức năng tạo tài khoản nhân viên" style="rounded=1;whiteSpace=wrap;html=1;fillColor=#1ba1e2;fontColor=#ffffff;strokeColor=#006EAF;" vertex="1" parent="i2-RoIuroY8MgzmHnkEs-1">
          <mxGeometry x="160" y="45" width="120" height="60" as="geometry" />
        </mxCell>
        <mxCell id="i2-RoIuroY8MgzmHnkEs-8" value="Nhập tên nhân viên" style="rounded=1;whiteSpace=wrap;html=1;fillColor=#1ba1e2;fontColor=#ffffff;strokeColor=#006EAF;" vertex="1" parent="i2-RoIuroY8MgzmHnkEs-1">
          <mxGeometry x="160" y="160" width="120" height="60" as="geometry" />
        </mxCell>
        <mxCell id="i2-RoIuroY8MgzmHnkEs-25" value="Nhập ngày sinh" style="rounded=1;whiteSpace=wrap;html=1;fillColor=#1ba1e2;fontColor=#ffffff;strokeColor=#006EAF;" vertex="1" parent="i2-RoIuroY8MgzmHnkEs-1">
          <mxGeometry x="160" y="285" width="120" height="60" as="geometry" />
        </mxCell>
        <mxCell id="i2-RoIuroY8MgzmHnkEs-37" value="Nhập số điện thoại" style="rounded=1;whiteSpace=wrap;html=1;fillColor=#1ba1e2;fontColor=#ffffff;strokeColor=#006EAF;" vertex="1" parent="i2-RoIuroY8MgzmHnkEs-1">
          <mxGeometry x="160" y="625" width="120" height="60" as="geometry" />
        </mxCell>
        <mxCell id="i2-RoIuroY8MgzmHnkEs-50" value="Chọn chức vụ" style="rounded=1;whiteSpace=wrap;html=1;fillColor=#1ba1e2;fontColor=#ffffff;strokeColor=#006EAF;" vertex="1" parent="i2-RoIuroY8MgzmHnkEs-1">
          <mxGeometry x="160" y="875" width="120" height="60" as="geometry" />
        </mxCell>
        <mxCell id="i2-RoIuroY8MgzmHnkEs-2" value="&lt;font style=&quot;font-size: 14px;&quot;&gt;Hệ thống&lt;/font&gt;" style="swimlane;whiteSpace=wrap;html=1;" vertex="1" parent="1">
          <mxGeometry x="320" y="40" width="600" height="1440" as="geometry" />
        </mxCell>
        <mxCell id="i2-RoIuroY8MgzmHnkEs-19" style="edgeStyle=orthogonalEdgeStyle;rounded=0;orthogonalLoop=1;jettySize=auto;html=1;entryX=0.5;entryY=0;entryDx=0;entryDy=0;exitX=1;exitY=0.5;exitDx=0;exitDy=0;exitPerimeter=0;" edge="1" parent="i2-RoIuroY8MgzmHnkEs-2" source="i2-RoIuroY8MgzmHnkEs-23" target="i2-RoIuroY8MgzmHnkEs-18">
          <mxGeometry relative="1" as="geometry">
            <Array as="points">
              <mxPoint x="380" y="315" />
            </Array>
          </mxGeometry>
        </mxCell>
        <mxCell id="i2-RoIuroY8MgzmHnkEs-20" value="&lt;font style=&quot;font-size: 12px;&quot;&gt;Tên chứa số hoặc kí tự đặc biệt&lt;/font&gt;" style="edgeLabel;html=1;align=center;verticalAlign=middle;resizable=0;points=[];" connectable="0" vertex="1" parent="i2-RoIuroY8MgzmHnkEs-19">
          <mxGeometry x="-0.4386" y="1" relative="1" as="geometry">
            <mxPoint x="77" y="1" as="offset" />
          </mxGeometry>
        </mxCell>
        <mxCell id="i2-RoIuroY8MgzmHnkEs-24" style="edgeStyle=orthogonalEdgeStyle;rounded=0;orthogonalLoop=1;jettySize=auto;html=1;" edge="1" parent="i2-RoIuroY8MgzmHnkEs-2" source="i2-RoIuroY8MgzmHnkEs-16" target="i2-RoIuroY8MgzmHnkEs-23">
          <mxGeometry relative="1" as="geometry" />
        </mxCell>
        <mxCell id="i2-RoIuroY8MgzmHnkEs-16" value="Kiểm tra tính hợp lệ" style="rounded=1;whiteSpace=wrap;html=1;fillColor=#1ba1e2;fontColor=#ffffff;strokeColor=#006EAF;" vertex="1" parent="i2-RoIuroY8MgzmHnkEs-2">
          <mxGeometry x="120" y="160" width="120" height="60" as="geometry" />
        </mxCell>
        <mxCell id="AqwdgorSLbD9eG5eH7GY-9" style="edgeStyle=orthogonalEdgeStyle;rounded=0;orthogonalLoop=1;jettySize=auto;html=1;entryX=0.5;entryY=0;entryDx=0;entryDy=0;" edge="1" parent="i2-RoIuroY8MgzmHnkEs-2" source="i2-RoIuroY8MgzmHnkEs-18" target="AqwdgorSLbD9eG5eH7GY-4">
          <mxGeometry relative="1" as="geometry" />
        </mxCell>
        <mxCell id="i2-RoIuroY8MgzmHnkEs-18" value="Thông báo: &quot;Tên không hợp lệ&quot;" style="rounded=1;whiteSpace=wrap;html=1;fillColor=#1ba1e2;fontColor=#ffffff;strokeColor=#006EAF;" vertex="1" parent="i2-RoIuroY8MgzmHnkEs-2">
          <mxGeometry x="320" y="340" width="120" height="60" as="geometry" />
        </mxCell>
        <mxCell id="i2-RoIuroY8MgzmHnkEs-23" value="" style="points=[[0.25,0.25,0],[0.5,0,0],[0.75,0.25,0],[1,0.5,0],[0.75,0.75,0],[0.5,1,0],[0.25,0.75,0],[0,0.5,0]];shape=mxgraph.bpmn.gateway2;html=1;verticalLabelPosition=bottom;labelBackgroundColor=#ffffff;verticalAlign=top;align=center;perimeter=rhombusPerimeter;outlineConnect=0;outline=none;symbol=none;fillColor=#008a00;fontColor=#ffffff;strokeColor=#005700;" vertex="1" parent="i2-RoIuroY8MgzmHnkEs-2">
          <mxGeometry x="155" y="290" width="50" height="50" as="geometry" />
        </mxCell>
        <mxCell id="i2-RoIuroY8MgzmHnkEs-30" value="Kiểm tra tính hợp lệ của ngày sinh" style="rounded=1;whiteSpace=wrap;html=1;fillColor=#1ba1e2;fontColor=#ffffff;strokeColor=#006EAF;" vertex="1" parent="i2-RoIuroY8MgzmHnkEs-2">
          <mxGeometry x="120" y="410" width="120" height="60" as="geometry" />
        </mxCell>
        <mxCell id="i2-RoIuroY8MgzmHnkEs-34" style="edgeStyle=orthogonalEdgeStyle;rounded=0;orthogonalLoop=1;jettySize=auto;html=1;entryX=0.5;entryY=0;entryDx=0;entryDy=0;" edge="1" parent="i2-RoIuroY8MgzmHnkEs-2" source="i2-RoIuroY8MgzmHnkEs-30" target="i2-RoIuroY8MgzmHnkEs-35">
          <mxGeometry relative="1" as="geometry">
            <mxPoint x="180" y="520" as="targetPoint" />
          </mxGeometry>
        </mxCell>
        <mxCell id="i2-RoIuroY8MgzmHnkEs-35" value="Tính độ tuổi" style="rounded=1;whiteSpace=wrap;html=1;fillColor=#1ba1e2;fontColor=#ffffff;strokeColor=#006EAF;" vertex="1" parent="i2-RoIuroY8MgzmHnkEs-2">
          <mxGeometry x="120" y="520" width="120" height="60" as="geometry" />
        </mxCell>
        <mxCell id="i2-RoIuroY8MgzmHnkEs-42" style="edgeStyle=orthogonalEdgeStyle;rounded=0;orthogonalLoop=1;jettySize=auto;html=1;entryX=0.5;entryY=0;entryDx=0;entryDy=0;" edge="1" parent="i2-RoIuroY8MgzmHnkEs-2" source="i2-RoIuroY8MgzmHnkEs-39" target="i2-RoIuroY8MgzmHnkEs-41">
          <mxGeometry relative="1" as="geometry" />
        </mxCell>
        <mxCell id="i2-RoIuroY8MgzmHnkEs-39" value="" style="points=[[0.25,0.25,0],[0.5,0,0],[0.75,0.25,0],[1,0.5,0],[0.75,0.75,0],[0.5,1,0],[0.25,0.75,0],[0,0.5,0]];shape=mxgraph.bpmn.gateway2;html=1;verticalLabelPosition=bottom;labelBackgroundColor=#ffffff;verticalAlign=top;align=center;perimeter=rhombusPerimeter;outlineConnect=0;outline=none;symbol=none;fillColor=#008a00;fontColor=#ffffff;strokeColor=#005700;" vertex="1" parent="i2-RoIuroY8MgzmHnkEs-2">
          <mxGeometry x="155" y="630" width="50" height="50" as="geometry" />
        </mxCell>
        <mxCell id="i2-RoIuroY8MgzmHnkEs-40" style="edgeStyle=orthogonalEdgeStyle;rounded=0;orthogonalLoop=1;jettySize=auto;html=1;entryX=0.5;entryY=0;entryDx=0;entryDy=0;entryPerimeter=0;" edge="1" parent="i2-RoIuroY8MgzmHnkEs-2" source="i2-RoIuroY8MgzmHnkEs-35" target="i2-RoIuroY8MgzmHnkEs-39">
          <mxGeometry relative="1" as="geometry" />
        </mxCell>
        <mxCell id="AqwdgorSLbD9eG5eH7GY-8" style="edgeStyle=orthogonalEdgeStyle;rounded=0;orthogonalLoop=1;jettySize=auto;html=1;entryX=0.5;entryY=0;entryDx=0;entryDy=0;" edge="1" parent="i2-RoIuroY8MgzmHnkEs-2" source="i2-RoIuroY8MgzmHnkEs-41" target="AqwdgorSLbD9eG5eH7GY-4">
          <mxGeometry relative="1" as="geometry" />
        </mxCell>
        <mxCell id="i2-RoIuroY8MgzmHnkEs-41" value="Thông báo: &quot;Ngày sinh không hợp lệ&quot;" style="rounded=1;whiteSpace=wrap;html=1;fillColor=#1ba1e2;fontColor=#ffffff;strokeColor=#006EAF;" vertex="1" parent="i2-RoIuroY8MgzmHnkEs-2">
          <mxGeometry x="320" y="680" width="120" height="60" as="geometry" />
        </mxCell>
        <mxCell id="i2-RoIuroY8MgzmHnkEs-44" value="Kiểm tra định dạng số điện thoại" style="rounded=1;whiteSpace=wrap;html=1;fillColor=#1ba1e2;fontColor=#ffffff;strokeColor=#006EAF;" vertex="1" parent="i2-RoIuroY8MgzmHnkEs-2">
          <mxGeometry x="120" y="760" width="120" height="60" as="geometry" />
        </mxCell>
        <mxCell id="i2-RoIuroY8MgzmHnkEs-49" style="edgeStyle=orthogonalEdgeStyle;rounded=0;orthogonalLoop=1;jettySize=auto;html=1;entryX=0.5;entryY=0;entryDx=0;entryDy=0;" edge="1" parent="i2-RoIuroY8MgzmHnkEs-2" source="i2-RoIuroY8MgzmHnkEs-46" target="i2-RoIuroY8MgzmHnkEs-48">
          <mxGeometry relative="1" as="geometry" />
        </mxCell>
        <mxCell id="i2-RoIuroY8MgzmHnkEs-46" value="" style="points=[[0.25,0.25,0],[0.5,0,0],[0.75,0.25,0],[1,0.5,0],[0.75,0.75,0],[0.5,1,0],[0.25,0.75,0],[0,0.5,0]];shape=mxgraph.bpmn.gateway2;html=1;verticalLabelPosition=bottom;labelBackgroundColor=#ffffff;verticalAlign=top;align=center;perimeter=rhombusPerimeter;outlineConnect=0;outline=none;symbol=none;fillColor=#008a00;fontColor=#ffffff;strokeColor=#005700;" vertex="1" parent="i2-RoIuroY8MgzmHnkEs-2">
          <mxGeometry x="155" y="880" width="50" height="50" as="geometry" />
        </mxCell>
        <mxCell id="i2-RoIuroY8MgzmHnkEs-47" style="edgeStyle=orthogonalEdgeStyle;rounded=0;orthogonalLoop=1;jettySize=auto;html=1;entryX=0.5;entryY=0;entryDx=0;entryDy=0;entryPerimeter=0;" edge="1" parent="i2-RoIuroY8MgzmHnkEs-2" source="i2-RoIuroY8MgzmHnkEs-44" target="i2-RoIuroY8MgzmHnkEs-46">
          <mxGeometry relative="1" as="geometry" />
        </mxCell>
        <mxCell id="AqwdgorSLbD9eG5eH7GY-7" style="edgeStyle=orthogonalEdgeStyle;rounded=0;orthogonalLoop=1;jettySize=auto;html=1;entryX=0.5;entryY=0;entryDx=0;entryDy=0;" edge="1" parent="i2-RoIuroY8MgzmHnkEs-2" source="i2-RoIuroY8MgzmHnkEs-48" target="AqwdgorSLbD9eG5eH7GY-4">
          <mxGeometry relative="1" as="geometry" />
        </mxCell>
        <mxCell id="i2-RoIuroY8MgzmHnkEs-48" value="Thông báo: &quot;Số điện thoại không hợp lệ&quot;" style="rounded=1;whiteSpace=wrap;html=1;fillColor=#1ba1e2;fontColor=#ffffff;strokeColor=#006EAF;" vertex="1" parent="i2-RoIuroY8MgzmHnkEs-2">
          <mxGeometry x="320" y="930" width="120" height="60" as="geometry" />
        </mxCell>
        <mxCell id="i2-RoIuroY8MgzmHnkEs-55" style="edgeStyle=orthogonalEdgeStyle;rounded=0;orthogonalLoop=1;jettySize=auto;html=1;entryX=0.5;entryY=0;entryDx=0;entryDy=0;" edge="1" parent="i2-RoIuroY8MgzmHnkEs-2" source="i2-RoIuroY8MgzmHnkEs-52" target="i2-RoIuroY8MgzmHnkEs-54">
          <mxGeometry relative="1" as="geometry" />
        </mxCell>
        <mxCell id="i2-RoIuroY8MgzmHnkEs-52" value="Tạo ID" style="rounded=1;whiteSpace=wrap;html=1;fillColor=#1ba1e2;fontColor=#ffffff;strokeColor=#006EAF;" vertex="1" parent="i2-RoIuroY8MgzmHnkEs-2">
          <mxGeometry x="120" y="990" width="120" height="60" as="geometry" />
        </mxCell>
        <mxCell id="i2-RoIuroY8MgzmHnkEs-54" value="Lưu thông tin" style="rounded=1;whiteSpace=wrap;html=1;fillColor=#1ba1e2;fontColor=#ffffff;strokeColor=#006EAF;" vertex="1" parent="i2-RoIuroY8MgzmHnkEs-2">
          <mxGeometry x="120" y="1110" width="120" height="60" as="geometry" />
        </mxCell>
        <mxCell id="i2-RoIuroY8MgzmHnkEs-61" style="edgeStyle=orthogonalEdgeStyle;rounded=0;orthogonalLoop=1;jettySize=auto;html=1;entryX=0.5;entryY=0;entryDx=0;entryDy=0;" edge="1" parent="i2-RoIuroY8MgzmHnkEs-2" source="i2-RoIuroY8MgzmHnkEs-56" target="i2-RoIuroY8MgzmHnkEs-60">
          <mxGeometry relative="1" as="geometry" />
        </mxCell>
        <mxCell id="i2-RoIuroY8MgzmHnkEs-64" value="&lt;font style=&quot;font-size: 12px;&quot;&gt;Không thành công&lt;/font&gt;" style="edgeLabel;html=1;align=center;verticalAlign=middle;resizable=0;points=[];" connectable="0" vertex="1" parent="i2-RoIuroY8MgzmHnkEs-61">
          <mxGeometry x="-0.3376" y="3" relative="1" as="geometry">
            <mxPoint x="1" as="offset" />
          </mxGeometry>
        </mxCell>
        <mxCell id="AqwdgorSLbD9eG5eH7GY-5" style="edgeStyle=orthogonalEdgeStyle;rounded=0;orthogonalLoop=1;jettySize=auto;html=1;entryX=0;entryY=0.5;entryDx=0;entryDy=0;" edge="1" parent="i2-RoIuroY8MgzmHnkEs-2" source="i2-RoIuroY8MgzmHnkEs-56" target="AqwdgorSLbD9eG5eH7GY-4">
          <mxGeometry relative="1" as="geometry">
            <Array as="points">
              <mxPoint x="180" y="1355" />
            </Array>
          </mxGeometry>
        </mxCell>
        <mxCell id="i2-RoIuroY8MgzmHnkEs-56" value="Lưu thành công" style="points=[[0.25,0.25,0],[0.5,0,0],[0.75,0.25,0],[1,0.5,0],[0.75,0.75,0],[0.5,1,0],[0.25,0.75,0],[0,0.5,0]];shape=mxgraph.bpmn.gateway2;html=1;verticalLabelPosition=bottom;labelBackgroundColor=#ffffff;verticalAlign=top;align=center;perimeter=rhombusPerimeter;outlineConnect=0;outline=none;symbol=none;fillColor=#008a00;fontColor=#ffffff;strokeColor=#005700;" vertex="1" parent="i2-RoIuroY8MgzmHnkEs-2">
          <mxGeometry x="155" y="1210" width="50" height="50" as="geometry" />
        </mxCell>
        <mxCell id="i2-RoIuroY8MgzmHnkEs-58" style="edgeStyle=orthogonalEdgeStyle;rounded=0;orthogonalLoop=1;jettySize=auto;html=1;entryX=0.5;entryY=0;entryDx=0;entryDy=0;entryPerimeter=0;" edge="1" parent="i2-RoIuroY8MgzmHnkEs-2" source="i2-RoIuroY8MgzmHnkEs-54" target="i2-RoIuroY8MgzmHnkEs-56">
          <mxGeometry relative="1" as="geometry" />
        </mxCell>
        <mxCell id="AqwdgorSLbD9eG5eH7GY-6" style="edgeStyle=orthogonalEdgeStyle;rounded=0;orthogonalLoop=1;jettySize=auto;html=1;entryX=0.5;entryY=0;entryDx=0;entryDy=0;" edge="1" parent="i2-RoIuroY8MgzmHnkEs-2" source="i2-RoIuroY8MgzmHnkEs-60" target="AqwdgorSLbD9eG5eH7GY-4">
          <mxGeometry relative="1" as="geometry" />
        </mxCell>
        <mxCell id="i2-RoIuroY8MgzmHnkEs-60" value="Thông báo: &quot;Lưu không thành công&quot;" style="rounded=1;whiteSpace=wrap;html=1;fillColor=#1ba1e2;fontColor=#ffffff;strokeColor=#006EAF;" vertex="1" parent="i2-RoIuroY8MgzmHnkEs-2">
          <mxGeometry x="320" y="1260" width="120" height="60" as="geometry" />
        </mxCell>
        <mxCell id="AqwdgorSLbD9eG5eH7GY-4" value="" style="ellipse;html=1;shape=endState;fillColor=#000000;strokeColor=#ff0000;" vertex="1" parent="i2-RoIuroY8MgzmHnkEs-2">
          <mxGeometry x="500" y="1340" width="30" height="30" as="geometry" />
        </mxCell>
        <mxCell id="i2-RoIuroY8MgzmHnkEs-17" style="edgeStyle=orthogonalEdgeStyle;rounded=0;orthogonalLoop=1;jettySize=auto;html=1;entryX=0;entryY=0.5;entryDx=0;entryDy=0;" edge="1" parent="1" source="i2-RoIuroY8MgzmHnkEs-8" target="i2-RoIuroY8MgzmHnkEs-16">
          <mxGeometry relative="1" as="geometry" />
        </mxCell>
        <mxCell id="i2-RoIuroY8MgzmHnkEs-26" style="edgeStyle=orthogonalEdgeStyle;rounded=0;orthogonalLoop=1;jettySize=auto;html=1;entryX=1;entryY=0.5;entryDx=0;entryDy=0;" edge="1" parent="1" source="i2-RoIuroY8MgzmHnkEs-23" target="i2-RoIuroY8MgzmHnkEs-25">
          <mxGeometry relative="1" as="geometry" />
        </mxCell>
        <mxCell id="i2-RoIuroY8MgzmHnkEs-27" value="&lt;font style=&quot;font-size: 12px;&quot;&gt;Tên hợp lệ&lt;/font&gt;" style="edgeLabel;html=1;align=center;verticalAlign=middle;resizable=0;points=[];" connectable="0" vertex="1" parent="i2-RoIuroY8MgzmHnkEs-26">
          <mxGeometry x="-0.3089" y="-1" relative="1" as="geometry">
            <mxPoint x="18" y="1" as="offset" />
          </mxGeometry>
        </mxCell>
        <mxCell id="i2-RoIuroY8MgzmHnkEs-31" style="edgeStyle=orthogonalEdgeStyle;rounded=0;orthogonalLoop=1;jettySize=auto;html=1;entryX=0;entryY=0.5;entryDx=0;entryDy=0;" edge="1" parent="1" source="i2-RoIuroY8MgzmHnkEs-25" target="i2-RoIuroY8MgzmHnkEs-30">
          <mxGeometry relative="1" as="geometry">
            <Array as="points">
              <mxPoint x="60" y="480" />
            </Array>
          </mxGeometry>
        </mxCell>
        <mxCell id="i2-RoIuroY8MgzmHnkEs-43" style="edgeStyle=orthogonalEdgeStyle;rounded=0;orthogonalLoop=1;jettySize=auto;html=1;entryX=1;entryY=0.5;entryDx=0;entryDy=0;" edge="1" parent="1" source="i2-RoIuroY8MgzmHnkEs-39" target="i2-RoIuroY8MgzmHnkEs-37">
          <mxGeometry relative="1" as="geometry" />
        </mxCell>
        <mxCell id="i2-RoIuroY8MgzmHnkEs-45" style="edgeStyle=orthogonalEdgeStyle;rounded=0;orthogonalLoop=1;jettySize=auto;html=1;entryX=0;entryY=0.5;entryDx=0;entryDy=0;" edge="1" parent="1" source="i2-RoIuroY8MgzmHnkEs-37" target="i2-RoIuroY8MgzmHnkEs-44">
          <mxGeometry relative="1" as="geometry">
            <Array as="points">
              <mxPoint x="60" y="830" />
            </Array>
          </mxGeometry>
        </mxCell>
        <mxCell id="i2-RoIuroY8MgzmHnkEs-51" style="edgeStyle=orthogonalEdgeStyle;rounded=0;orthogonalLoop=1;jettySize=auto;html=1;entryX=1;entryY=0.5;entryDx=0;entryDy=0;" edge="1" parent="1" source="i2-RoIuroY8MgzmHnkEs-46" target="i2-RoIuroY8MgzmHnkEs-50">
          <mxGeometry relative="1" as="geometry" />
        </mxCell>
        <mxCell id="i2-RoIuroY8MgzmHnkEs-53" style="edgeStyle=orthogonalEdgeStyle;rounded=0;orthogonalLoop=1;jettySize=auto;html=1;entryX=0;entryY=0.5;entryDx=0;entryDy=0;" edge="1" parent="1" source="i2-RoIuroY8MgzmHnkEs-50" target="i2-RoIuroY8MgzmHnkEs-52">
          <mxGeometry relative="1" as="geometry">
            <Array as="points">
              <mxPoint x="60" y="1060" />
            </Array>
          </mxGeometry>
        </mxCell>
      </root>
    </mxGraphModel>
  </diagram>
  <diagram id="GgOjzZUunRmGGN7r5Q1V" name="UC-5.2">
    <mxGraphModel grid="1" page="1" gridSize="10" guides="1" tooltips="1" connect="1" arrows="1" fold="1" pageScale="1" pageWidth="827" pageHeight="1169" math="0" shadow="0">
      <root>
        <mxCell id="0" />
        <mxCell id="1" parent="0" />
        <mxCell id="U0jVgyknXFoRy8qKQiS7-1" value="&lt;font style=&quot;font-size: 14px;&quot;&gt;Quản lý&lt;/font&gt;" style="swimlane;whiteSpace=wrap;html=1;" vertex="1" parent="1">
          <mxGeometry x="-160" y="40" width="480" height="1080" as="geometry" />
        </mxCell>
        <mxCell id="U0jVgyknXFoRy8qKQiS7-2" style="edgeStyle=orthogonalEdgeStyle;rounded=0;orthogonalLoop=1;jettySize=auto;html=1;" edge="1" parent="U0jVgyknXFoRy8qKQiS7-1" source="U0jVgyknXFoRy8qKQiS7-3" target="U0jVgyknXFoRy8qKQiS7-5">
          <mxGeometry relative="1" as="geometry" />
        </mxCell>
        <mxCell id="U0jVgyknXFoRy8qKQiS7-3" value="" style="points=[[0.145,0.145,0],[0.5,0,0],[0.855,0.145,0],[1,0.5,0],[0.855,0.855,0],[0.5,1,0],[0.145,0.855,0],[0,0.5,0]];shape=mxgraph.bpmn.event;html=1;verticalLabelPosition=bottom;labelBackgroundColor=#ffffff;verticalAlign=top;align=center;perimeter=ellipsePerimeter;outlineConnect=0;aspect=fixed;outline=standard;symbol=general;fillColor=#008a00;fontColor=#ffffff;strokeColor=#005700;" vertex="1" parent="U0jVgyknXFoRy8qKQiS7-1">
          <mxGeometry x="10" y="50" width="50" height="50" as="geometry" />
        </mxCell>
        <mxCell id="U0jVgyknXFoRy8qKQiS7-5" value="Chọn chức năng tính tiền lương nhân viên" style="rounded=1;whiteSpace=wrap;html=1;fillColor=#1ba1e2;fontColor=#ffffff;strokeColor=#006EAF;" vertex="1" parent="U0jVgyknXFoRy8qKQiS7-1">
          <mxGeometry x="160" y="45" width="120" height="60" as="geometry" />
        </mxCell>
        <mxCell id="kkeHS25dtxqUv2vEG9dq-4" style="edgeStyle=orthogonalEdgeStyle;rounded=0;orthogonalLoop=1;jettySize=auto;html=1;entryX=0.5;entryY=0;entryDx=0;entryDy=0;" edge="1" parent="U0jVgyknXFoRy8qKQiS7-1" source="kkeHS25dtxqUv2vEG9dq-1" target="kkeHS25dtxqUv2vEG9dq-3">
          <mxGeometry relative="1" as="geometry" />
        </mxCell>
        <mxCell id="kkeHS25dtxqUv2vEG9dq-1" value="Nhập tiền thưởng" style="rounded=1;whiteSpace=wrap;html=1;fillColor=#1ba1e2;fontColor=#ffffff;strokeColor=#006EAF;" vertex="1" parent="U0jVgyknXFoRy8qKQiS7-1">
          <mxGeometry x="160" y="160" width="120" height="60" as="geometry" />
        </mxCell>
        <mxCell id="kkeHS25dtxqUv2vEG9dq-3" value="Nhập tiền phạt" style="rounded=1;whiteSpace=wrap;html=1;fillColor=#1ba1e2;fontColor=#ffffff;strokeColor=#006EAF;" vertex="1" parent="U0jVgyknXFoRy8qKQiS7-1">
          <mxGeometry x="160" y="280" width="120" height="60" as="geometry" />
        </mxCell>
        <mxCell id="kkeHS25dtxqUv2vEG9dq-16" style="edgeStyle=orthogonalEdgeStyle;rounded=0;orthogonalLoop=1;jettySize=auto;html=1;" edge="1" parent="U0jVgyknXFoRy8qKQiS7-1" source="kkeHS25dtxqUv2vEG9dq-13" target="kkeHS25dtxqUv2vEG9dq-15">
          <mxGeometry relative="1" as="geometry" />
        </mxCell>
        <mxCell id="kkeHS25dtxqUv2vEG9dq-13" value="Xác nhận thông tin" style="rounded=1;whiteSpace=wrap;html=1;fillColor=#1ba1e2;fontColor=#ffffff;strokeColor=#006EAF;" vertex="1" parent="U0jVgyknXFoRy8qKQiS7-1">
          <mxGeometry x="160" y="400" width="120" height="60" as="geometry" />
        </mxCell>
        <mxCell id="kkeHS25dtxqUv2vEG9dq-15" value="" style="points=[[0.25,0.25,0],[0.5,0,0],[0.75,0.25,0],[1,0.5,0],[0.75,0.75,0],[0.5,1,0],[0.25,0.75,0],[0,0.5,0]];shape=mxgraph.bpmn.gateway2;html=1;verticalLabelPosition=bottom;labelBackgroundColor=#ffffff;verticalAlign=top;align=center;perimeter=rhombusPerimeter;outlineConnect=0;outline=none;symbol=none;fillColor=#008a00;fontColor=#ffffff;strokeColor=#005700;" vertex="1" parent="U0jVgyknXFoRy8qKQiS7-1">
          <mxGeometry x="195" y="560" width="50" height="50" as="geometry" />
        </mxCell>
        <mxCell id="U0jVgyknXFoRy8qKQiS7-10" value="&lt;font style=&quot;font-size: 14px;&quot;&gt;Hệ thống&lt;/font&gt;" style="swimlane;whiteSpace=wrap;html=1;" vertex="1" parent="1">
          <mxGeometry x="320" y="40" width="600" height="1080" as="geometry" />
        </mxCell>
        <mxCell id="kkeHS25dtxqUv2vEG9dq-8" style="edgeStyle=orthogonalEdgeStyle;rounded=0;orthogonalLoop=1;jettySize=auto;html=1;entryX=0.5;entryY=0;entryDx=0;entryDy=0;" edge="1" parent="U0jVgyknXFoRy8qKQiS7-10" source="kkeHS25dtxqUv2vEG9dq-5" target="kkeHS25dtxqUv2vEG9dq-7">
          <mxGeometry relative="1" as="geometry" />
        </mxCell>
        <mxCell id="kkeHS25dtxqUv2vEG9dq-5" value="Tính số giờ làm" style="rounded=1;whiteSpace=wrap;html=1;fillColor=#1ba1e2;fontColor=#ffffff;strokeColor=#006EAF;" vertex="1" parent="U0jVgyknXFoRy8qKQiS7-10">
          <mxGeometry x="180" y="45" width="120" height="60" as="geometry" />
        </mxCell>
        <mxCell id="kkeHS25dtxqUv2vEG9dq-7" value="Tính tiền lương" style="rounded=1;whiteSpace=wrap;html=1;fillColor=#1ba1e2;fontColor=#ffffff;strokeColor=#006EAF;" vertex="1" parent="U0jVgyknXFoRy8qKQiS7-10">
          <mxGeometry x="180" y="160" width="120" height="60" as="geometry" />
        </mxCell>
        <mxCell id="kkeHS25dtxqUv2vEG9dq-11" value="Tính tổng tiền thực nhận" style="rounded=1;whiteSpace=wrap;html=1;fillColor=#1ba1e2;fontColor=#ffffff;strokeColor=#006EAF;" vertex="1" parent="U0jVgyknXFoRy8qKQiS7-10">
          <mxGeometry x="180" y="280" width="120" height="60" as="geometry" />
        </mxCell>
        <mxCell id="kkeHS25dtxqUv2vEG9dq-17" value="Lưu thông tin tiền lương" style="rounded=1;whiteSpace=wrap;html=1;fillColor=#1ba1e2;fontColor=#ffffff;strokeColor=#006EAF;" vertex="1" parent="U0jVgyknXFoRy8qKQiS7-10">
          <mxGeometry x="180" y="650" width="120" height="60" as="geometry" />
        </mxCell>
        <mxCell id="8gLIYKee18Gxrf4crSDf-2" style="edgeStyle=orthogonalEdgeStyle;rounded=0;orthogonalLoop=1;jettySize=auto;html=1;entryX=0;entryY=0.5;entryDx=0;entryDy=0;" edge="1" parent="U0jVgyknXFoRy8qKQiS7-10" source="kkeHS25dtxqUv2vEG9dq-19" target="8gLIYKee18Gxrf4crSDf-1">
          <mxGeometry relative="1" as="geometry">
            <Array as="points">
              <mxPoint x="240" y="1035" />
            </Array>
          </mxGeometry>
        </mxCell>
        <mxCell id="kkeHS25dtxqUv2vEG9dq-19" value="Gửi thông tin tiền lương về tài khoản nhân viên" style="rounded=1;whiteSpace=wrap;html=1;fillColor=#1ba1e2;fontColor=#ffffff;strokeColor=#006EAF;" vertex="1" parent="U0jVgyknXFoRy8qKQiS7-10">
          <mxGeometry x="180" y="900" width="120" height="60" as="geometry" />
        </mxCell>
        <mxCell id="kkeHS25dtxqUv2vEG9dq-22" style="edgeStyle=orthogonalEdgeStyle;rounded=0;orthogonalLoop=1;jettySize=auto;html=1;entryX=0.5;entryY=0;entryDx=0;entryDy=0;" edge="1" parent="U0jVgyknXFoRy8qKQiS7-10" source="kkeHS25dtxqUv2vEG9dq-20" target="kkeHS25dtxqUv2vEG9dq-19">
          <mxGeometry relative="1" as="geometry" />
        </mxCell>
        <mxCell id="8gLIYKee18Gxrf4crSDf-5" value="&lt;font style=&quot;font-size: 12px;&quot;&gt;Lưu thành công&lt;/font&gt;" style="edgeLabel;html=1;align=center;verticalAlign=middle;resizable=0;points=[];" connectable="0" vertex="1" parent="kkeHS25dtxqUv2vEG9dq-22">
          <mxGeometry x="-0.1729" relative="1" as="geometry">
            <mxPoint as="offset" />
          </mxGeometry>
        </mxCell>
        <mxCell id="kkeHS25dtxqUv2vEG9dq-25" style="edgeStyle=orthogonalEdgeStyle;rounded=0;orthogonalLoop=1;jettySize=auto;html=1;entryX=0.5;entryY=0;entryDx=0;entryDy=0;" edge="1" parent="U0jVgyknXFoRy8qKQiS7-10" source="kkeHS25dtxqUv2vEG9dq-20" target="kkeHS25dtxqUv2vEG9dq-24">
          <mxGeometry relative="1" as="geometry" />
        </mxCell>
        <mxCell id="kkeHS25dtxqUv2vEG9dq-28" value="&lt;font style=&quot;font-size: 12px;&quot;&gt;Lưu không thành công&lt;/font&gt;" style="edgeLabel;html=1;align=center;verticalAlign=middle;resizable=0;points=[];" connectable="0" vertex="1" parent="kkeHS25dtxqUv2vEG9dq-25">
          <mxGeometry x="-0.1926" relative="1" as="geometry">
            <mxPoint x="2" as="offset" />
          </mxGeometry>
        </mxCell>
        <mxCell id="kkeHS25dtxqUv2vEG9dq-20" value="" style="points=[[0.25,0.25,0],[0.5,0,0],[0.75,0.25,0],[1,0.5,0],[0.75,0.75,0],[0.5,1,0],[0.25,0.75,0],[0,0.5,0]];shape=mxgraph.bpmn.gateway2;html=1;verticalLabelPosition=bottom;labelBackgroundColor=#ffffff;verticalAlign=top;align=center;perimeter=rhombusPerimeter;outlineConnect=0;outline=none;symbol=none;fillColor=#008a00;fontColor=#ffffff;strokeColor=#005700;" vertex="1" parent="U0jVgyknXFoRy8qKQiS7-10">
          <mxGeometry x="215" y="760" width="50" height="50" as="geometry" />
        </mxCell>
        <mxCell id="kkeHS25dtxqUv2vEG9dq-21" style="edgeStyle=orthogonalEdgeStyle;rounded=0;orthogonalLoop=1;jettySize=auto;html=1;entryX=0.5;entryY=0;entryDx=0;entryDy=0;entryPerimeter=0;" edge="1" parent="U0jVgyknXFoRy8qKQiS7-10" source="kkeHS25dtxqUv2vEG9dq-17" target="kkeHS25dtxqUv2vEG9dq-20">
          <mxGeometry relative="1" as="geometry" />
        </mxCell>
        <mxCell id="8gLIYKee18Gxrf4crSDf-3" style="edgeStyle=orthogonalEdgeStyle;rounded=0;orthogonalLoop=1;jettySize=auto;html=1;entryX=0.5;entryY=0;entryDx=0;entryDy=0;" edge="1" parent="U0jVgyknXFoRy8qKQiS7-10" source="kkeHS25dtxqUv2vEG9dq-24" target="8gLIYKee18Gxrf4crSDf-1">
          <mxGeometry relative="1" as="geometry" />
        </mxCell>
        <mxCell id="kkeHS25dtxqUv2vEG9dq-24" value="Thông báo: &quot;Lưu không thành công&quot;" style="rounded=1;whiteSpace=wrap;html=1;fillColor=#1ba1e2;fontColor=#ffffff;strokeColor=#006EAF;" vertex="1" parent="U0jVgyknXFoRy8qKQiS7-10">
          <mxGeometry x="360" y="810" width="120" height="60" as="geometry" />
        </mxCell>
        <mxCell id="8gLIYKee18Gxrf4crSDf-4" style="edgeStyle=orthogonalEdgeStyle;rounded=0;orthogonalLoop=1;jettySize=auto;html=1;entryX=0.5;entryY=0;entryDx=0;entryDy=0;" edge="1" parent="U0jVgyknXFoRy8qKQiS7-10" source="isSsOQwcusvrInyHFCUB-1" target="8gLIYKee18Gxrf4crSDf-1">
          <mxGeometry relative="1" as="geometry" />
        </mxCell>
        <mxCell id="isSsOQwcusvrInyHFCUB-1" value="Thông báo: &quot;Hủy tính tiền lương&quot;" style="rounded=1;whiteSpace=wrap;html=1;fillColor=#1ba1e2;fontColor=#ffffff;strokeColor=#006EAF;" vertex="1" parent="U0jVgyknXFoRy8qKQiS7-10">
          <mxGeometry x="180" y="555" width="120" height="60" as="geometry" />
        </mxCell>
        <mxCell id="8gLIYKee18Gxrf4crSDf-1" value="" style="ellipse;html=1;shape=endState;fillColor=#000000;strokeColor=#ff0000;" vertex="1" parent="U0jVgyknXFoRy8qKQiS7-10">
          <mxGeometry x="550" y="1020" width="30" height="30" as="geometry" />
        </mxCell>
        <mxCell id="kkeHS25dtxqUv2vEG9dq-9" style="edgeStyle=orthogonalEdgeStyle;rounded=0;orthogonalLoop=1;jettySize=auto;html=1;entryX=0;entryY=0.5;entryDx=0;entryDy=0;" edge="1" parent="1" source="U0jVgyknXFoRy8qKQiS7-5" target="kkeHS25dtxqUv2vEG9dq-5">
          <mxGeometry relative="1" as="geometry" />
        </mxCell>
        <mxCell id="kkeHS25dtxqUv2vEG9dq-10" style="edgeStyle=orthogonalEdgeStyle;rounded=0;orthogonalLoop=1;jettySize=auto;html=1;entryX=1;entryY=0.5;entryDx=0;entryDy=0;" edge="1" parent="1" source="kkeHS25dtxqUv2vEG9dq-7" target="kkeHS25dtxqUv2vEG9dq-1">
          <mxGeometry relative="1" as="geometry" />
        </mxCell>
        <mxCell id="kkeHS25dtxqUv2vEG9dq-12" style="edgeStyle=orthogonalEdgeStyle;rounded=0;orthogonalLoop=1;jettySize=auto;html=1;entryX=0;entryY=0.5;entryDx=0;entryDy=0;" edge="1" parent="1" source="kkeHS25dtxqUv2vEG9dq-3" target="kkeHS25dtxqUv2vEG9dq-11">
          <mxGeometry relative="1" as="geometry" />
        </mxCell>
        <mxCell id="kkeHS25dtxqUv2vEG9dq-14" style="edgeStyle=orthogonalEdgeStyle;rounded=0;orthogonalLoop=1;jettySize=auto;html=1;entryX=1;entryY=0.5;entryDx=0;entryDy=0;" edge="1" parent="1" source="kkeHS25dtxqUv2vEG9dq-11" target="kkeHS25dtxqUv2vEG9dq-13">
          <mxGeometry relative="1" as="geometry">
            <Array as="points">
              <mxPoint x="560" y="470" />
            </Array>
          </mxGeometry>
        </mxCell>
        <mxCell id="kkeHS25dtxqUv2vEG9dq-18" style="edgeStyle=orthogonalEdgeStyle;rounded=0;orthogonalLoop=1;jettySize=auto;html=1;entryX=0;entryY=0.5;entryDx=0;entryDy=0;exitX=0.5;exitY=1;exitDx=0;exitDy=0;exitPerimeter=0;" edge="1" parent="1" source="kkeHS25dtxqUv2vEG9dq-15" target="kkeHS25dtxqUv2vEG9dq-17">
          <mxGeometry relative="1" as="geometry" />
        </mxCell>
        <mxCell id="kkeHS25dtxqUv2vEG9dq-29" value="Yes" style="edgeLabel;html=1;align=center;verticalAlign=middle;resizable=0;points=[];" connectable="0" vertex="1" parent="kkeHS25dtxqUv2vEG9dq-18">
          <mxGeometry x="-0.4784" y="1" relative="1" as="geometry">
            <mxPoint as="offset" />
          </mxGeometry>
        </mxCell>
        <mxCell id="isSsOQwcusvrInyHFCUB-2" style="edgeStyle=orthogonalEdgeStyle;rounded=0;orthogonalLoop=1;jettySize=auto;html=1;entryX=0;entryY=0.5;entryDx=0;entryDy=0;" edge="1" parent="1" source="kkeHS25dtxqUv2vEG9dq-15" target="isSsOQwcusvrInyHFCUB-1">
          <mxGeometry relative="1" as="geometry" />
        </mxCell>
        <mxCell id="isSsOQwcusvrInyHFCUB-3" value="&lt;font style=&quot;font-size: 12px;&quot;&gt;No&lt;/font&gt;" style="edgeLabel;html=1;align=center;verticalAlign=middle;resizable=0;points=[];" connectable="0" vertex="1" parent="isSsOQwcusvrInyHFCUB-2">
          <mxGeometry x="-0.4345" y="-1" relative="1" as="geometry">
            <mxPoint as="offset" />
          </mxGeometry>
        </mxCell>
      </root>
    </mxGraphModel>
  </diagram>
</mxfile>
